# xmcd CD database file generated by Grip 2.95
# 
# Track frame offsets:
#       150
#       13053
#       25332
#       38239
#       52260
#       64705
#       83156
#       100875
#       119250
#       133933
#       148790
#       165798
#       180570
#       196884
# 
# Disc length: 2848 seconds
# 
# Revision: 3
# Processed by: cddbd v1.4b41PL1 Copyright (c) Steve Scherf et al.
# Submitted via: Grip 2.95
# 
DISCID=bf0b1e0e
DTITLE=John Williamson - Old Man Emu
DYEAR=1900
DGENRE=
TTITLE0=Old Man Emu
TTITLE1=Big Counrty Round
TTITLE2=Boyhood Story
TTITLE3=Under The Bridge
TTITLE4=Heaven's Right Here
TTITLE5=The Breaker (With Narration: Charles "Bud" Tingwell)
TTITLE6=Murrumbidgee Madness
TTITLE7=True Blue
TTITLE8=A Granda Plan for Landa
TTITLE9=Only a Dog
TTITLE10=Springbrook
TTITLE11=Send Down The Rain
TTITLE12=Hawkesbury River Lovin'
TTITLE13=Diggers of the ANZAC
EXTD=
EXTT0=
EXTT1=
EXTT2=
EXTT3=
EXTT4=
EXTT5=
EXTT6=
EXTT7=
EXTT8=
EXTT9=
EXTT10=
EXTT11=
EXTT12=
EXTT13=
PLAYORDER=
